<svg width="135" height="40" viewBox="0 0 135 40" fill="none" xmlns="http://www.w3.org/2000/svg">
<path d="M134 20C134 22.2709 132.442 24.6403 129.122 26.9659C125.83 29.2718 121.002 31.3889 114.946 33.1833C102.846 36.7684 86.0712 39 67.5 39C48.9288 39 32.1539 36.7684 20.0544 33.1833C13.9981 31.3889 9.1699 29.2718 5.87823 26.9659C2.55845 24.6403 1 22.2709 1 20C1 17.7291 2.55845 15.3597 5.87823 13.0341C9.1699 10.7282 13.9981 8.61111 20.0544 6.81666C32.1539 3.23161 48.9288 1 67.5 1C86.0712 1 102.846 3.23161 114.946 6.81666C121.002 8.61111 125.83 10.7282 129.122 13.0341C132.442 15.3597 134 17.7291 134 20Z" fill="black" stroke="#C4C4C4" stroke-width="2"/>
</svg>
