<svg width="885" height="388" viewBox="0 0 885 388" fill="none" xmlns="http://www.w3.org/2000/svg">
<path d="M881.445 186.985C881.85 212.63 870.024 237.298 848.201 259.955C826.377 282.615 794.579 303.236 755.121 320.766C676.207 355.826 566.746 378.481 445.447 380.398C324.148 382.315 214.026 363.129 134.043 330.581C94.0508 314.306 61.6173 294.7 39.0877 272.741C16.5601 250.785 3.96 226.503 3.55473 200.857C3.14947 175.212 14.9761 150.544 36.7986 127.887C58.6231 105.227 90.421 84.606 129.879 67.0758C208.793 32.0164 318.254 9.36109 439.553 7.44427C560.852 5.52744 670.974 24.7128 750.957 57.2613C790.949 73.5359 823.383 93.142 845.912 115.101C868.44 137.057 881.04 161.339 881.445 186.985Z" stroke="white"/>
</svg>
