<svg width="34" height="30" viewBox="0 0 34 30" fill="none" xmlns="http://www.w3.org/2000/svg">
<path d="M0.576473 14.2166L8.72786 18.2791C9.04314 18.4347 9.41536 18.4235 9.71675 18.2472L16.9723 14.0291L12.5806 17.9208C12.357 18.1194 12.2292 18.4027 12.2292 18.7013V28.1805C12.2292 29.1805 13.5056 29.6013 14.1042 28.8069L17.6279 24.1222L26.3417 29.0847C26.9529 29.436 27.7362 29.0833 27.8779 28.3847L33.3126 1.30132C33.4751 0.487431 32.6654 -0.176457 31.9126 0.12632L0.662584 12.3138C-0.176305 12.6416 -0.230472 13.8152 0.576473 14.2166ZM30.8959 2.75965L26.1195 26.561L17.8626 21.8583C17.4126 21.6013 16.8334 21.7152 16.514 22.1374L14.3126 25.0638V19.1694L26.189 8.64715C27.1292 7.81521 26.0487 6.33604 24.9751 6.9666L9.15564 16.1638L3.61119 13.4013L30.8959 2.75965Z" fill="black"/>
</svg>
