<svg width="34" height="33" viewBox="0 0 34 33" fill="none" xmlns="http://www.w3.org/2000/svg">
<path d="M0.255614 14.5306C-0.82633 21.3445 2.20145 29.5625 11.5376 32.5944C11.7042 32.625 11.8584 32.6389 12.0028 32.6389C13.0889 32.6389 13.8362 31.8306 13.8362 30.8333C13.7014 30.107 14.3681 27.1639 12.5584 27.5597C9.05978 28.3042 8.64033 26.35 8.107 25.3278C9.61533 27.2639 11.882 27.2153 13.5917 26.4653C14.5403 26.0486 14.0445 24.9875 14.4945 24.6C15.1834 24.0083 14.8334 22.8736 13.9292 22.775C10.7153 22.4208 7.73895 21.3847 7.73895 16.2445C7.73895 13.2333 9.82922 12.9639 9.25283 11.7042C9.232 11.6583 8.79033 10.6569 9.19033 9.13612C11.1612 9.50001 12.0681 10.9139 13.0139 10.6597C15.357 10.0208 17.9362 10.0208 20.2778 10.6597C21.2556 10.9222 21.9542 9.54723 24.0806 9.12778C24.6931 11.425 23.4237 11.9861 24.2237 12.8458C25.1014 13.7903 25.5473 14.9333 25.5473 16.2445C25.5473 23.9722 18.9959 21.7403 18.4626 23.4944C18.3403 23.8945 18.4695 24.3264 18.7889 24.5944C19.6362 25.3069 19.5251 27.1361 19.4348 28.607C19.3417 30.132 19.2612 31.4472 20.1042 32.1889C20.4014 32.4528 20.9306 32.7347 21.8876 32.5403C31.1014 29.5806 34.1514 21.3986 33.0862 14.6C30.175 -3.96666 3.18895 -3.94444 0.255614 14.5306ZM11.7417 29.7778L11.7473 30.4792C11.0209 30.2278 10.3376 29.9375 9.69867 29.6139C10.2889 29.7653 10.9667 29.8306 11.7417 29.7778ZM12.2556 24.6389C12.2487 24.675 12.2417 24.7125 12.2348 24.75C11.0501 25.1 10.1389 24.7514 9.51672 23.7056C9.51672 23.7042 9.51672 23.7042 9.51533 23.7028C10.4598 24.2083 11.4334 24.4806 12.2556 24.6389ZM16.6667 2.77778C33.1014 2.77778 36.8084 25.3708 21.4848 30.4736C21.432 30.0611 21.4806 29.2833 21.5139 28.7347C21.5945 27.4139 21.6889 25.875 21.2181 24.5889C28.2848 23.1181 28.875 15.3583 26.1542 11.9014C26.4917 10.5792 26.3556 7.47223 25.1417 7.09167C24.8556 7.00139 23.3292 6.66945 20.3681 8.53195C17.9501 7.95417 15.3403 7.95278 12.9223 8.53195C11.4445 7.60556 8.11395 6.09862 7.47506 7.69862C6.73339 9.56251 6.90978 11.0695 7.13061 11.907C4.71533 14.9681 5.43895 20.0931 7.87228 22.4986C6.49311 21.8389 4.59311 21.6139 4.18339 22.9347C3.73478 24.375 5.45006 24.2 6.51533 26.8292C6.61672 27.1569 6.80422 27.5417 7.09172 27.9236C-2.368 20.1944 2.19589 2.77778 16.6667 2.77778Z" fill="black"/>
</svg>
