<svg width="23" height="17" viewBox="0 0 23 17" fill="none" xmlns="http://www.w3.org/2000/svg">
<path d="M14.3792 0.800064C8.64861 0.74173 5.04583 0.152841 2.11944 4.8209C0.455551 7.47645 0.108329 12.0612 0.76944 13.532C1.58472 15.3487 3.49722 16.3223 6.7875 16.5987C7.67778 16.6528 7.87361 15.8265 8.79028 14.8556C10.4528 15.1973 12.8778 15.1973 14.5417 14.8556C15.5153 15.914 15.6875 16.6598 16.5445 16.5987C19.8347 16.3237 21.7486 15.3487 22.5639 13.532C23.2264 12.0584 22.8764 7.47367 21.2139 4.8209C18.482 0.462564 14.4556 0.79173 14.3792 0.800064ZM20.6639 12.6792C20.5028 13.0403 20.0264 14.1015 16.9139 14.4681L16.85 14.3903C16.9306 14.332 18.6986 13.0417 18.7708 12.9737C19.7264 12.0903 18.4986 10.5987 17.4472 11.3695C17.4472 11.3695 15.3097 13.0528 11.6681 13.0528C7.84167 13.0528 6.23194 11.5626 5.88889 11.3695C4.83889 10.5973 3.60972 12.0903 4.56528 12.9737C4.6375 13.0403 6.40694 14.332 6.48611 14.3903L6.42222 14.4681C3.31111 14.1015 2.83472 13.0417 2.67222 12.6778C2.38194 12.0126 2.47916 8.17229 3.8875 5.92784C5.04444 4.08201 6.74028 2.88479 8.95694 2.88479C14.2653 2.76534 17.1542 2.26256 19.4514 5.92784C20.8556 8.17229 20.9542 12.014 20.6639 12.6792Z" fill="black"/>
</svg>
