<svg width="31" height="34" viewBox="0 0 31 34" fill="none" xmlns="http://www.w3.org/2000/svg">
<path d="M30.9445 32.2917V3.75972C30.9445 1.68611 29.2612 0 27.1917 0H4.1417C2.07225 0 0.388916 1.68611 0.388916 3.75972V24.1389C0.388916 26.2111 2.07225 27.8986 4.1417 27.8986H22.8389L29.2459 33.1014C29.925 33.6486 30.9445 33.1722 30.9445 32.2917ZM28.8611 30.1042C23.6764 25.9972 23.8598 25.8153 23.2084 25.8153H4.1417C3.22086 25.8153 2.47225 25.0639 2.47225 24.1389V3.75972C2.47225 2.83472 3.22086 2.08333 4.1417 2.08333H27.1917C28.1125 2.08333 28.8611 2.83472 28.8611 3.75972V30.1042Z" fill="black"/>
</svg>
