<svg width="34" height="28" viewBox="0 0 34 28" fill="none" xmlns="http://www.w3.org/2000/svg">
<path d="M0.990274 24.8819C4.07638 26.8403 7.66805 27.875 11.3764 27.875C16.8069 27.875 21.7833 25.7889 25.3903 22.0014C28.8417 18.3764 30.7403 13.5055 30.6458 8.56247C31.9542 7.44303 33.493 5.30553 33.493 3.22219C33.493 2.42358 32.6264 1.91664 31.9236 2.32358C30.6944 3.0458 29.5736 3.23469 28.4208 2.91108C26.0667 0.616638 22.5625 0.133305 19.6097 1.72497C17.0292 3.11386 15.5944 5.65553 15.7236 8.43331C11.3639 7.90136 7.33611 5.71525 4.52777 2.31803C4.06666 1.76386 3.19166 1.82914 2.825 2.45692C1.47222 4.77358 1.48611 7.45831 2.6625 9.62636C2.10277 9.72497 1.75694 10.1958 1.75694 10.7055C1.75694 12.8847 2.7375 14.8875 4.31666 16.2541C4.02222 16.5375 3.925 16.9583 4.05 17.3333C4.74444 19.4194 6.31666 21.05 8.28194 21.8666C6.14444 22.8875 3.78055 23.2278 1.67638 22.9694C0.587496 22.8222 0.0499963 24.2861 0.990274 24.8819ZM11.6611 22.2236C12.4403 21.625 12.0264 20.3778 11.0486 20.3569C9.32638 20.3208 7.75833 19.4722 6.78194 18.1375C7.25277 18.1069 7.74027 18.0347 8.20416 17.9097C9.2611 17.6236 9.2111 16.0986 8.13749 15.8833C6.18888 15.4916 4.65972 14.0722 4.08611 12.2444C4.60972 12.3736 5.14305 12.4458 5.67499 12.4555C6.72916 12.4611 7.12777 11.1097 6.26805 10.5444C4.33055 9.26803 3.50416 7.01386 4.05138 4.89442C7.43472 8.32219 12.025 10.3875 16.8805 10.6208C17.5764 10.6639 18.0986 10.0097 17.9458 9.34719C17.2861 6.48747 18.8833 4.48331 20.5986 3.55969C22.2958 2.64303 25.0208 2.35692 27.1097 4.54858C27.7305 5.20275 29.825 5.22775 30.8903 4.97914C30.4125 5.87914 29.6778 6.73331 28.9903 7.21386C28.6972 7.41942 28.5292 7.76108 28.5472 8.11803C28.7708 12.6805 27.0708 17.2166 23.8833 20.5625C20.6722 23.9333 16.2319 25.7903 11.3778 25.7903C9.44722 25.7903 7.55416 25.4764 5.76527 24.8708C7.90416 24.4569 9.9361 23.5514 11.6611 22.2236Z" fill="black"/>
</svg>
