<svg width="31" height="33" viewBox="0 0 31 33" fill="none" xmlns="http://www.w3.org/2000/svg">
<path d="M1.17114 31.921V32.421H1.67114H5.85714H6.35714V31.921V26.454H8.36614C9.83805 26.454 11.1262 26.2034 12.2111 25.683V31.921V32.421H12.7111H24.3721H24.8721V31.921V28.281V27.781H24.3721H17.3711V25.544H23.9041H24.4041V25.044V21.43V20.93H23.9041H17.3711V19.421H17.4732V18.921V18.576H17.7516V18.921V19.421H18.2516H22.3856H22.8856V18.921V18.576H24.3721H24.8721V18.076V14.475V13.975H24.3721H22.8856V11.8182L28.9246 1.73182L29.3778 0.974976H28.4956H23.6206H23.3241L23.1819 1.23512L20.4085 6.30794L17.8125 1.24678L17.6731 0.974976H17.4732H17.3676H16.9732H12.7742H12.4796H12.2742H11.6224L12.0444 1.72113L12.2742 2.12737V7.85198H6.68319V1.47498V0.974976H6.18319H2.02319H1.52319V1.47498V13.975H1.17114V14.475V31.921ZM17.7516 13.975H17.4732V11.3193L17.7516 11.8116V13.975ZM8.36614 13.975H6.68319V12.518H12.2742V13.975H12.2111V14.475V14.746C11.1262 14.2256 9.83805 13.975 8.36614 13.975ZM6.35714 21.814V19.421H6.68319V18.921V18.576H8.36614C9.02626 18.576 9.43858 18.7591 9.69712 19.047L9.6971 19.0471L9.70088 19.0512C10.0069 19.3844 10.1541 19.7623 10.1541 20.208C10.1541 20.6428 10.0084 21.017 9.70088 21.3518L9.70057 21.3521C9.44279 21.6333 9.0293 21.814 8.36614 21.814H6.35714Z" fill="black" stroke="white"/>
</svg>
