<svg width="23" height="25" viewBox="0 0 23 25" fill="none" xmlns="http://www.w3.org/2000/svg">
<path d="M15.1528 24.3333C15.2959 24.3333 21.7667 24.3319 21.625 24.3319C22.2 24.3319 22.6667 23.8652 22.6667 23.2902C22.1806 12.3777 25.225 0.862457 13.8639 0.862457C11.6792 0.862457 9.93892 1.60829 8.68476 2.5944C8.68476 0.565235 6.4917 1.68746 1.42921 1.38607C0.854209 1.38607 0.387543 1.85273 0.387543 2.42773C0.806987 22.1027 -0.548568 24.3319 1.42921 24.3319H7.90143C9.78059 24.3319 8.58476 21.6819 8.94309 12.9597C8.94309 9.3569 9.98476 8.65135 11.7848 8.65135C13.7764 8.65135 14.1111 10.0347 14.1111 13.1347C14.4681 21.7 13.2806 24.3333 15.1528 24.3333ZM11.7848 6.56801C5.54726 6.56801 6.85976 13.4263 6.85976 22.2486H2.47087V3.4694H6.60143V5.27218C6.60143 6.27218 8.12504 6.76385 8.65559 5.75829C9.33893 4.46107 11.1139 2.94579 13.8639 2.94579C18.7625 2.94579 20.5834 5.35273 20.5834 11.8291V22.25H16.1945C16.1945 12.3277 17.2445 6.56801 11.7848 6.56801Z" fill="black"/>
</svg>
