<svg width="34" height="26" viewBox="0 0 34 26" fill="none" xmlns="http://www.w3.org/2000/svg">
<path d="M1.13607 2.14173L4.74301 4.51395V19.607L0.976343 23.3237C0.315232 23.9778 0.78051 25.107 1.70829 25.107H9.85967C10.7861 25.107 11.2541 23.9792 10.5916 23.3237L6.82495 19.607V8.61812C10.6875 16.8348 14.4527 24.8306 14.3625 24.6487C14.743 25.4209 15.9472 25.4417 16.2736 24.5445L16.275 24.5417C16.275 24.5417 16.2763 24.5403 16.2763 24.539C17.1791 22.0487 19.1152 16.7084 18.9916 17.0473C19.0611 16.8542 22.3541 7.45562 22.4055 7.30979V20.8834L19.9874 23.3348C19.3388 23.9931 19.8069 25.1084 20.7291 25.1084H32.9583C33.8777 25.1084 34.3472 23.9987 33.7027 23.339L31.3791 20.9598L31.2861 4.38618L33.6902 2.01395C34.3513 1.35979 33.8861 0.230622 32.9583 0.230622C31.9833 0.230622 36.493 0.229233 23.4166 0.236177C22.0861 0.275066 22.5361 1.4709 17.8805 13.8084L12.1722 0.851455C12.0055 0.473677 11.6305 0.229233 11.218 0.229233H1.70829C0.677732 0.230622 0.273565 1.57645 1.13607 2.14173ZM4.24579 23.0251L5.78329 21.507L7.32079 23.0251H4.24579ZM24.4888 2.31395H30.4208C29.7555 3.05701 29.1972 3.27368 29.2 3.95979L29.2986 21.3917C29.3013 22.0528 29.8416 22.2848 30.4847 23.0237H23.2208C23.9388 22.2084 24.4902 21.9848 24.4902 21.3098V2.31395H24.4888ZM10.5388 2.31395L16.8638 16.6681L15.1611 21.4556C6.58329 3.23895 6.88468 2.95284 5.18745 2.31395H10.5388Z" fill="black"/>
</svg>
