<svg width="26" height="24" viewBox="0 0 26 24" fill="none" xmlns="http://www.w3.org/2000/svg">
<path d="M23.5569 9.50549C23.6791 10.068 24.2333 10.4277 24.7958 10.3013C25.3583 10.1791 25.7152 9.62355 25.5916 9.06105C23.9652 1.58605 14.3472 -2.36673 6.80273 1.62216C-0.322273 5.41105 -1.66811 14.3027 4.95134 19.7249C4.66106 20.6458 4.37911 21.5722 4.1055 22.4999C3.84856 23.3749 4.75967 24.1291 5.56661 23.7291C6.72356 23.1583 7.88884 22.3472 8.96245 21.8638C9.70828 22.0708 10.4374 22.2291 11.1319 22.3333C12.4763 22.5499 12.8166 20.4791 11.4416 20.2735C8.54161 19.8374 9.39995 19.1666 6.85828 20.6083C7.12495 19.7541 7.50411 19.0416 6.78189 18.511C0.684671 14.0319 1.85689 6.61105 7.77911 3.46382C14.2263 0.0527119 22.2486 3.50827 23.5569 9.50549Z" fill="black"/>
</svg>
