<svg width="23" height="21" viewBox="0 0 23 21" fill="none" xmlns="http://www.w3.org/2000/svg">
<path d="M16.8389 2.20006C11.5389 -0.558273 6.13194 1.35145 3.34722 4.2945C0.573609 7.22645 0.0902774 11.139 2.08472 14.5028C4.11944 17.9709 8.86249 20.6681 14.968 19.0223C15.8319 19.4181 16.7291 20.0334 17.6972 20.5112C18.5041 20.9112 19.4139 20.1556 19.1583 19.2862C18.95 18.5695 18.7305 17.8584 18.5014 17.1501C20.9403 15.1237 22.2041 12.4084 21.993 9.60006C21.7611 6.52367 19.8347 3.75701 16.8389 2.20006ZM16.668 15.939C16.1069 16.3487 16.225 16.8876 16.3916 17.4028C15.6791 17.0292 15.2194 16.782 14.743 16.9209C9.5486 18.4598 5.54444 16.2862 3.88055 13.4459C2.35416 10.8737 2.72222 7.98895 4.8611 5.72784C7.48888 2.95006 11.9611 2.01256 15.8778 4.05006H15.8791C18.2291 5.27228 19.7375 7.40701 19.9153 9.75839C20.0916 12.0876 18.9389 14.2834 16.668 15.939Z" fill="black"/>
</svg>
